<svg xmlns="http://www.w3.org/2000/svg" viewBox="0 0 540 400"><switch><g><path fill="#FFD9B6" d="M43.317 221.07c0-64.471 16.107-115.106 48.368-151.901C123.923 32.397 171.273 14 233.764 14v83.131c-26.216 0-45.604 7.814-58.191 23.429-12.611 15.633-18.895 39.555-18.895 71.792v27.207h87.665v166.263H69.012C51.868 328.386 43.317 273.475 43.317 221.07zm255.438 0c0-64.471 16.107-115.106 48.368-151.901C379.362 32.397 426.712 14 489.202 14v83.131c-26.212 0-45.604 7.814-58.191 23.429-12.611 15.633-18.895 39.555-18.895 71.792v27.207h87.67v166.263H324.451c-17.144-57.436-25.696-112.347-25.696-164.752z"/></g></switch></svg>