<svg xmlns="http://www.w3.org/2000/svg" viewBox="0 0 170 160"><switch><g><path fill="#696969" d="M147.929 74.319c0 16.528-4.129 29.508-12.398 38.94-8.265 9.426-20.402 14.142-36.422 14.142V106.09c6.72 0 11.69-2.004 14.917-6.005 3.233-4.008 4.844-10.141 4.844-18.405v-6.974H96.396V32.085h44.945c4.396 14.724 6.588 28.8 6.588 42.234zm-65.482 0c0 16.528-4.129 29.508-12.398 38.94-8.264 9.426-20.402 14.142-36.422 14.142V106.09c6.72 0 11.69-2.004 14.917-6.005 3.233-4.008 4.844-10.141 4.844-18.405v-6.974H30.915V32.085H75.86c4.396 14.724 6.587 28.8 6.587 42.234z" opacity=".1"/></g></switch></svg>