<svg xmlns="http://www.w3.org/2000/svg" viewBox="0 0 170 160"><switch><g><path fill="#696969" d="M30.915 85.168c0-16.528 4.129-29.508 12.398-38.94 8.265-9.426 20.402-14.142 36.422-14.142v21.311c-6.72 0-11.69 2.004-14.917 6.005-3.233 4.008-4.844 10.141-4.844 18.405v6.974h22.473v42.621H37.502c-4.396-14.724-6.587-28.8-6.587-42.234zm65.481 0c0-16.528 4.129-29.508 12.398-38.94 8.264-9.426 20.402-14.142 36.422-14.142v21.311c-6.72 0-11.69 2.004-14.917 6.005-3.233 4.008-4.844 10.141-4.844 18.405v6.974h22.473v42.621h-44.945c-4.395-14.724-6.587-28.8-6.587-42.234z" opacity=".1"/></g></switch></svg>