<svg xmlns="http://www.w3.org/2000/svg" viewBox="0 0 344 176"><switch><g><path fill="#E04403" d="M41.323 48.64l14.221 7.359-.016 87.551-26.629-13.779V12.957l-12.423 7.596v117.484l51.479 26.637.559-116.599-27.191-14.07z"/><path fill="#B70D0D" d="M41.323 122.183l14.208 7.355-.003 14.012-26.629-13.779z"/><path fill="#F7941D" d="M67.955 164.674V47.825l-26.632-13.82v88.178l-12.424 7.588V12.957l51.479 26.68v117.449zm34.591-105.332h12.55v79.86h-12.55v-79.86zm34.108 22.019v57.841h-11.295v-79.86h15.745l12.89 47.801V59.342h11.182v79.86h-12.892l-15.63-57.841zm79.275-22.019h12.55v79.86h-12.55v-79.86zm34.106 22.019v57.841H238.74v-79.86h15.745l12.89 47.801V59.342h11.182v79.86h-12.892l-15.63-57.841zm50.531 31.373L284.71 59.342h13.118l9.584 36.394 9.582-36.394h11.98l-15.858 53.392v26.467h-12.55v-26.467zM175.435 59.342v11.409h33.718V59.342zm0 23.347v56.513h12.55V94.033h16.2V82.689z"/></g></switch></svg>