<svg xmlns="http://www.w3.org/2000/svg" viewBox="0 0 105 276"><path fill="#E53B25" d="M53.81 21.263l3.176 1.644-.003 19.556-5.948-3.078V13.293l-2.775 1.696v26.242l11.498 5.95.125-26.044-6.073-3.143z"/><path fill="#B70D0D" d="M53.81 37.69l3.173 1.643v3.13l-5.948-3.078z"/><path fill="#F7941D" d="M59.758 47.181v-26.1l-5.948-3.087V37.69l-2.775 1.695V13.293l11.498 5.959v26.234z"/><path fill="#E53B25" d="M27.701 74.826l3.177 1.644-.003 19.556-5.949-3.078V66.856l-2.774 1.697v26.242l11.498 5.949.125-26.044-6.074-3.143z"/><path fill="#B70D0D" d="M27.701 91.253l3.174 1.643v3.13l-5.949-3.078z"/><path fill="#F7941D" d="M33.65 100.744v-26.1l-5.949-3.087v19.696l-2.775 1.695V66.856l11.499 5.959V99.05z"/><path fill="#E53B25" d="M53.81 128.39l3.176 1.644-.003 19.556-5.948-3.078V120.42l-2.775 1.696v26.242l11.498 5.95.125-26.044-6.073-3.143z"/><path fill="#B70D0D" d="M53.81 144.817l3.173 1.643v3.13l-5.948-3.078z"/><path fill="#F7941D" d="M59.758 154.308v-26.1l-5.948-3.087v19.696l-2.775 1.695V120.42l11.498 5.959v26.234z"/><path fill="#E53B25" d="M27.701 181.954l3.177 1.643-.003 19.556-5.949-3.078v-26.092l-2.774 1.697v26.242l11.498 5.95.125-26.045-6.074-3.142z"/><path fill="#B70D0D" d="M27.701 198.381l3.174 1.642v3.13l-5.949-3.078z"/><path fill="#F7941D" d="M33.65 207.872v-26.1l-5.949-3.087v19.696l-2.775 1.694v-26.092l11.499 5.96v26.234z"/><path fill="#E53B25" d="M53.81 235.517l3.176 1.644-.003 19.556-5.948-3.078v-26.092l-2.775 1.696v26.242l11.498 5.95.125-26.044-6.073-3.143z"/><path fill="#B70D0D" d="M53.81 251.944l3.173 1.643v3.13l-5.948-3.078z"/><path fill="#F7941D" d="M59.758 261.435v-26.1l-5.948-3.087v19.696l-2.775 1.695v-26.092l11.498 5.959v26.234z"/></svg>