<?xml version="1.0" encoding="utf-8"?>
<!-- Generator: Adobe Illustrator 23.0.1, SVG Export Plug-In . SVG Version: 6.00 Build 0)  -->
<svg version="1.1" id="Capa_1" xmlns="http://www.w3.org/2000/svg" xmlns:xlink="http://www.w3.org/1999/xlink" x="0px" y="0px"
	 viewBox="0 0 105 276" enable-background="new 0 0 105 276" xml:space="preserve">
<g>
	<g>
		<g>
			<g>
				<polygon fill="#E53B25" points="53.81,21.263 56.986,22.907 56.983,42.463 51.035,39.385 51.035,13.293 48.26,14.989 
					48.26,41.231 59.758,47.181 59.883,21.137 53.81,17.994 				"/>
				<polygon fill="#B70D0D" points="53.81,37.69 56.983,39.333 56.983,42.463 51.035,39.385 				"/>
			</g>
		</g>
		<polygon fill="#F7941D" points="59.758,47.181 59.758,21.081 53.81,17.994 53.81,37.69 51.035,39.385 51.035,13.293 
			62.533,19.252 62.533,45.486 		"/>
	</g>
	<g>
		<g>
			<g>
				<polygon fill="#E53B25" points="27.701,74.826 30.878,76.47 30.875,96.026 24.926,92.948 24.926,66.856 22.152,68.553 
					22.152,94.795 33.65,100.744 33.775,74.7 27.701,71.557 				"/>
				<polygon fill="#B70D0D" points="27.701,91.253 30.875,92.896 30.875,96.026 24.926,92.948 				"/>
			</g>
		</g>
		<polygon fill="#F7941D" points="33.65,100.744 33.65,74.644 27.701,71.557 27.701,91.253 24.926,92.948 24.926,66.856 
			36.425,72.815 36.425,99.05 		"/>
	</g>
	<g>
		<g>
			<g>
				<polygon fill="#E53B25" points="53.81,128.39 56.986,130.034 56.983,149.59 51.035,146.512 51.035,120.42 48.26,122.116 
					48.26,148.358 59.758,154.308 59.883,128.264 53.81,125.121 				"/>
				<polygon fill="#B70D0D" points="53.81,144.817 56.983,146.46 56.983,149.59 51.035,146.512 				"/>
			</g>
		</g>
		<polygon fill="#F7941D" points="59.758,154.308 59.758,128.208 53.81,125.121 53.81,144.817 51.035,146.512 51.035,120.42 
			62.533,126.379 62.533,152.613 		"/>
	</g>
	<g>
		<g>
			<g>
				<polygon fill="#E53B25" points="27.701,181.954 30.878,183.597 30.875,203.153 24.926,200.075 24.926,173.983 22.152,175.68 
					22.152,201.922 33.65,207.872 33.775,181.827 27.701,178.685 				"/>
				<polygon fill="#B70D0D" points="27.701,198.381 30.875,200.023 30.875,203.153 24.926,200.075 				"/>
			</g>
		</g>
		<polygon fill="#F7941D" points="33.65,207.872 33.65,181.772 27.701,178.685 27.701,198.381 24.926,200.075 24.926,173.983 
			36.425,179.943 36.425,206.177 		"/>
	</g>
	<g>
		<g>
			<g>
				<polygon fill="#E53B25" points="53.81,235.517 56.986,237.161 56.983,256.717 51.035,253.639 51.035,227.547 48.26,229.243 
					48.26,255.485 59.758,261.435 59.883,235.391 53.81,232.248 				"/>
				<polygon fill="#B70D0D" points="53.81,251.944 56.983,253.587 56.983,256.717 51.035,253.639 				"/>
			</g>
		</g>
		<polygon fill="#F7941D" points="59.758,261.435 59.758,235.335 53.81,232.248 53.81,251.944 51.035,253.639 51.035,227.547 
			62.533,233.506 62.533,259.74 		"/>
	</g>
</g>
<g>
</g>
<g>
</g>
<g>
</g>
<g>
</g>
<g>
</g>
<g>
</g>
<g>
</g>
<g>
</g>
<g>
</g>
<g>
</g>
<g>
</g>
</svg>
